<svg width="255" height="105" viewBox="0 0 255 105" fill="none" xmlns="http://www.w3.org/2000/svg">
<path d="M2.496 1.448H18.96C22.128 1.448 24.608 2.232 26.4 3.8C28.192 5.368 29.088 7.64 29.088 10.616C29.088 12.12 28.736 13.496 28.032 14.744C27.328 15.96 26.368 16.904 25.152 17.576C26.816 18.184 28.064 19.112 28.896 20.36C29.728 21.576 30.144 23.176 30.144 25.16C30.144 27.176 29.68 28.936 28.752 30.44C27.856 31.912 26.608 33.048 25.008 33.848C23.44 34.616 21.696 35 19.776 35H2.496V1.448ZM17.568 15.08C18.848 15.08 19.856 14.76 20.592 14.12C21.328 13.48 21.696 12.456 21.696 11.048C21.696 9.512 21.328 8.456 20.592 7.88C19.888 7.304 18.8 7.016 17.328 7.016H9.792V15.08H17.568ZM18 29.432C19.568 29.432 20.752 29.128 21.552 28.52C22.384 27.88 22.8 26.776 22.8 25.208C22.8 23.608 22.368 22.456 21.504 21.752C20.672 21.048 19.424 20.696 17.76 20.696H9.792V29.432H18Z" fill="black"/>
<path d="M34.2304 1.448H48.7744C52.5824 1.448 55.5424 2.408 57.6544 4.328C59.7984 6.216 60.8704 8.952 60.8704 12.536C60.8704 15.032 60.2944 17.16 59.1424 18.92C57.9904 20.648 56.3584 21.912 54.2464 22.712L60.6304 35H53.1424L47.2384 23.624H41.5264V35H34.2304V1.448ZM47.4784 17.528C49.3344 17.528 50.7904 17.128 51.8464 16.328C52.9344 15.528 53.4784 14.264 53.4784 12.536C53.4784 10.712 52.9504 9.432 51.8944 8.696C50.8384 7.928 49.3664 7.544 47.4784 7.544H41.5264V17.528H47.4784Z" fill="black"/>
<path d="M64.9335 1.448H88.2135V7.544H72.2295V15.32H83.9895V21.176H72.2295V28.904H88.2135V35H64.9335V1.448Z" fill="black"/>
<path d="M91.746 1.448H98.85L112.866 23.144V1.448H120.162V35H113.106L99.042 13.304V35H91.746V1.448Z" fill="black"/>
<path d="M142.16 35.72C138.8 35.72 135.744 34.984 132.992 33.512C130.272 32.04 128.128 29.992 126.56 27.368C124.992 24.712 124.208 21.672 124.208 18.248C124.208 14.824 124.992 11.784 126.56 9.128C128.128 6.472 130.272 4.408 132.992 2.936C135.744 1.464 138.8 0.727997 142.16 0.727997C145.52 0.727997 148.544 1.464 151.232 2.936C153.952 4.408 156.096 6.472 157.664 9.128C159.232 11.784 160.016 14.824 160.016 18.248C160.016 21.672 159.232 24.712 157.664 27.368C156.096 29.992 153.952 32.04 151.232 33.512C148.544 34.984 145.52 35.72 142.16 35.72ZM142.16 29C144.08 29 145.824 28.568 147.392 27.704C148.992 26.808 150.256 25.56 151.184 23.96C152.112 22.328 152.576 20.424 152.576 18.248C152.576 16.104 152.112 14.232 151.184 12.632C150.288 11 149.04 9.752 147.44 8.888C145.872 7.992 144.112 7.544 142.16 7.544C140.176 7.544 138.384 7.992 136.784 8.888C135.216 9.752 133.968 11 133.04 12.632C132.112 14.232 131.648 16.104 131.648 18.248C131.648 20.424 132.112 22.328 133.04 23.96C133.968 25.56 135.232 26.808 136.832 27.704C138.432 28.568 140.208 29 142.16 29Z" fill="black"/>
<path d="M40.976 50.448H48.128L61.52 84H54.08L51.2 76.704H37.904L35.024 84H27.536L40.976 50.448ZM49.28 70.896L44.528 58.128L39.776 70.896H49.28Z" fill="#3A7853"/>
<path d="M65.5741 50.448H72.8701V77.904H88.2301V84H65.5741V50.448Z" fill="#3A7853"/>
<path d="M91.3554 50.448H98.5554L108.875 72.912L119.243 50.448H126.395V84H119.435V64.944L110.555 84H107.195L98.3634 64.944V84H91.3554V50.448Z" fill="#3A7853"/>
<path d="M131.434 50.448H154.714V56.544H138.73V64.32H150.49V70.176H138.73V77.904H154.714V84H131.434V50.448Z" fill="#3A7853"/>
<path d="M158.246 50.448H165.542V84H158.246V50.448Z" fill="#3A7853"/>
<path d="M170.574 50.448H182.238C185.886 50.448 189.07 51.12 191.79 52.464C194.51 53.808 196.606 55.728 198.078 58.224C199.55 60.72 200.286 63.664 200.286 67.056C200.286 72.624 198.654 76.848 195.39 79.728C192.158 82.576 187.646 84 181.854 84H170.574V50.448ZM182.238 77.904C185.662 77.904 188.286 76.944 190.11 75.024C191.934 73.104 192.846 70.448 192.846 67.056C192.846 65.04 192.446 63.232 191.646 61.632C190.846 60.032 189.678 58.784 188.142 57.888C186.606 56.992 184.798 56.544 182.718 56.544H177.87V77.904H182.238Z" fill="#3A7853"/>
<path d="M213.663 50.448H220.816L234.208 84H226.768L223.887 76.704H210.592L207.712 84H200.223L213.663 50.448ZM221.967 70.896L217.215 58.128L212.464 70.896H221.967Z" fill="#3A7853"/>
<path d="M215 90H230V105H215V90Z" fill="#3A7853"/>
<path d="M240 90H255V105H240V90Z" fill="#3A7853"/>
<path d="M240 65H255V80H240V65Z" fill="#3A7853"/>
</svg>
